<svg id="visual" viewBox="0 0 900 600" width="900" height="600" xmlns="http://www.w3.org/2000/svg" xmlns:xlink="http://www.w3.org/1999/xlink" version="1.1"><rect width="900" height="600" fill="#e3e3e3"></rect><g><g transform="translate(869 459)"><path d="M0 -77.2L60.4 -48.1L75.3 17.2L33.5 69.6L-33.5 69.6L-75.3 17.2L-60.4 -48.1Z" fill="#8B90A3"></path></g><g transform="translate(411 37)"><path d="M0 -70L54.7 -43.6L68.2 15.6L30.4 63.1L-30.4 63.1L-68.2 15.6L-54.7 -43.6Z" fill="#8B90A3"></path></g><g transform="translate(742 346)"><path d="M0 -61L47.7 -38L59.5 13.6L26.5 55L-26.5 55L-59.5 13.6L-47.7 -38Z" fill="#8B90A3"></path></g><g transform="translate(219 561)"><path d="M0 -72L56.3 -44.9L70.2 16L31.2 64.9L-31.2 64.9L-70.2 16L-56.3 -44.9Z" fill="#8B90A3"></path></g><g transform="translate(596 213)"><path d="M0 -67L52.4 -41.8L65.3 14.9L29.1 60.4L-29.1 60.4L-65.3 14.9L-52.4 -41.8Z" fill="#8B90A3"></path></g><g transform="translate(621 583)"><path d="M0 -74L57.9 -46.1L72.1 16.5L32.1 66.7L-32.1 66.7L-72.1 16.5L-57.9 -46.1Z" fill="#8B90A3"></path></g><g transform="translate(222 246)"><path d="M0 -73L57.1 -45.5L71.2 16.2L31.7 65.8L-31.7 65.8L-71.2 16.2L-57.1 -45.5Z" fill="#8B90A3"></path></g></g></svg>